<svg 
 xmlns="http://www.w3.org/2000/svg"
 xmlns:xlink="http://www.w3.org/1999/xlink"
 width="20.92cm" height="3.281cm">
<defs>
<linearGradient id="PSgrad_0" x1="0%" x2="0%" y1="100%" y2="0%">
  <stop offset="0%" stop-color="rgb(108,0,255)" stop-opacity="1" />
  <stop offset="100%" stop-color="rgb(156,0,255)" stop-opacity="1" />
</linearGradient>

</defs>
<path fill-rule="evenodd"  fill="rgb(0, 0, 0)"
 d="M579.490,33.605 C578.294,32.659 576.591,32.186 574.382,32.186 C572.920,32.186 571.700,32.378 570.726,32.763 C569.750,33.148 569.19,33.674 568.532,34.344 C568.44,35.13 567.792,35.779 567.777,36.640 C567.747,37.348 567.888,37.972 568.200,38.510 C568.512,39.49 568.969,39.522 569.571,39.929 C570.173,40.337 570.901,40.695 571.754,41.3 C572.607,41.311 573.567,41.580 574.634,41.811 L578.656,42.734 C580.972,43.242 583.17,43.919 584.792,44.765 C586.567,45.611 588.60,46.619 589.271,47.789 C590.483,48.958 591.400,50.304 592.25,51.828 C592.650,53.351 592.970,55.59 592.985,56.952 C592.970,59.937 592.223,62.499 590.745,64.638 C589.267,66.777 587.146,68.415 584.381,69.554 C581.615,70.692 578.282,71.262 574.382,71.262 C570.466,71.262 567.54,70.669 564.144,69.485 C561.233,68.300 558.971,66.500 557.356,64.84 C555.741,61.668 554.911,58.614 554.865,54.921 L565.698,54.921 C565.789,56.444 566.193,57.713 566.909,58.729 C567.625,59.744 568.612,60.514 569.869,61.37 C571.126,61.560 572.584,61.822 574.245,61.822 C575.768,61.822 577.67,61.614 578.142,61.199 C579.216,60.783 580.42,60.206 580.621,59.468 C581.200,58.729 581.497,57.883 581.512,56.929 C581.497,56.36 581.223,55.271 580.690,54.632 C580.156,53.994 579.337,53.440 578.233,52.970 C577.128,52.501 575.723,52.66 574.16,51.666 L569.126,50.512 C565.73,49.574 561.881,48.54 559.550,45.954 C557.219,43.853 556.61,41.11 556.76,37.425 C556.61,34.502 556.838,31.940 558.407,29.739 C559.976,27.539 562.148,25.823 564.921,24.592 C567.694,23.361 570.855,22.746 574.405,22.746 C578.31,22.746 581.181,23.365 583.855,24.604 C586.529,25.842 588.605,27.577 590.83,29.808 C591.560,32.40 592.314,34.625 592.345,37.564 L581.512,37.564 C581.360,35.871 580.686,34.552 579.490,33.605 ZM542.14,68.942 C539.592,70.89 536.651,70.662 533.193,70.662 L512.190,70.662 L512.190,23.392 L531.707,23.392 C535.211,23.392 538.148,23.892 540.517,24.892 C542.886,25.893 544.669,27.293 545.865,29.93 C547.61,30.893 547.659,32.978 547.659,35.348 C547.659,37.148 547.285,38.752 546.539,40.160 C545.792,41.568 544.764,42.734 543.454,43.657 C542.143,44.580 540.627,45.227 538.906,45.596 L538.906,46.57 C540.795,46.150 542.543,46.665 544.151,47.604 C545.758,48.543 547.49,49.847 548.25,51.516 C548.999,53.186 549.487,55.159 549.487,57.436 C549.487,59.975 548.847,62.241 547.567,64.234 C546.288,66.227 544.437,67.796 542.14,68.942 ZM534.449,33.825 C533.337,32.917 531.836,32.463 529.947,32.463 L523.503,32.463 L523.503,42.826 L529.764,42.826 C530.999,42.826 532.96,42.618 533.55,42.203 C534.15,41.787 534.765,41.187 535.306,40.403 C535.847,39.618 536.118,38.672 536.118,37.564 C536.118,35.979 535.561,34.733 534.449,33.825 ZM536.826,52.970 C536.262,52.86 535.463,51.401 534.427,50.916 C533.390,50.431 532.149,50.189 530.701,50.189 L523.503,50.189 L523.503,61.452 L530.496,61.452 C532.949,61.452 534.758,60.983 535.924,60.45 C537.89,59.106 537.672,57.798 537.672,56.121 C537.672,54.905 537.390,53.855 536.826,52.970 ZM456.105,92.471 C430.717,92.471 410.136,71.889 410.136,46.501 C410.136,21.113 430.717,0.532 456.105,0.532 C481.494,0.532 502.75,21.113 502.75,46.501 C502.75,71.889 481.494,92.471 456.105,92.471 ZM355.188,92.250 C329.861,92.250 309.330,71.718 309.330,46.391 C309.330,21.64 329.861,0.532 355.188,0.532 C380.515,0.532 401.47,21.64 401.47,46.391 C401.47,71.718 380.515,92.250 355.188,92.250 ZM291.165,68.544 C288.731,69.684 285.777,70.254 282.302,70.254 L261.201,70.254 L261.201,23.231 L280.810,23.231 C284.330,23.231 287.281,23.728 289.661,24.723 C292.41,25.718 293.832,27.111 295.34,28.902 C296.235,30.693 296.836,32.767 296.836,35.124 C296.836,36.915 296.461,38.511 295.711,39.912 C294.961,41.312 293.928,42.472 292.611,43.390 C291.295,44.309 289.772,44.952 288.42,45.319 L288.42,45.778 C289.940,45.870 291.697,46.383 293.312,47.317 C294.927,48.250 296.224,49.548 297.204,51.208 C298.183,52.870 298.673,54.833 298.673,57.98 C298.673,59.624 298.30,61.878 296.744,63.860 C295.459,65.842 293.599,67.404 291.165,68.544 ZM283.565,33.609 C282.447,32.706 280.939,32.254 279.42,32.254 L272.567,32.254 L272.567,42.564 L278.858,42.564 C280.98,42.564 281.200,42.357 282.164,41.944 C283.129,41.530 283.882,40.934 284.426,40.153 C284.969,39.372 285.241,38.431 285.241,37.329 C285.241,35.752 284.682,34.512 283.565,33.609 ZM285.953,52.655 C285.386,51.775 284.583,51.94 283.542,50.611 C282.501,50.129 281.253,49.888 279.799,49.888 L272.567,49.888 L272.567,61.93 L279.593,61.93 C282.57,61.93 283.875,60.626 285.46,59.692 C286.217,58.759 286.802,57.458 286.802,55.789 C286.802,54.580 286.519,53.535 285.953,52.655 ZM239.519,60.381 L223.279,60.381 L220.186,70.254 L207.971,70.254 L223.837,23.231 L238.968,23.231 L254.834,70.254 L242.618,70.254 L239.519,60.381 ZM231.574,35.79 L231.207,35.79 L225.984,51.748 L236.808,51.748 L231.574,35.79 ZM193.464,68.486 C190.348,70.94 186.770,70.897 182.729,70.897 C178.244,70.897 174.303,69.925 170.905,67.981 C167.506,66.38 164.858,63.263 162.960,59.658 C161.62,56.53 160.113,51.771 160.113,46.811 C160.113,42.954 160.687,39.529 161.835,36.537 C162.983,33.544 164.586,31.7 166.645,28.925 C168.704,26.843 171.92,25.267 173.809,24.195 C176.526,23.124 179.453,22.588 182.592,22.588 C185.316,22.588 187.853,22.978 190.203,23.759 C192.553,24.539 194.635,25.642 196.448,27.65 C198.262,28.489 199.735,30.180 200.868,32.140 C202.1,34.99 202.705,36.249 202.981,38.592 L191.477,38.592 C191.217,37.627 190.835,36.774 190.329,36.31 C189.824,35.289 189.204,34.658 188.470,34.137 C187.735,33.617 186.893,33.223 185.944,32.955 C184.995,32.687 183.954,32.553 182.821,32.553 C180.540,32.553 178.569,33.104 176.909,34.206 C175.248,35.308 173.966,36.912 173.63,39.16 C172.159,41.121 171.708,43.674 171.708,46.674 C171.708,49.689 172.144,52.261 173.17,54.389 C173.889,56.516 175.152,58.139 176.805,59.256 C178.459,60.374 180.464,60.932 182.821,60.932 C184.903,60.932 186.667,60.592 188.114,59.911 C189.560,59.230 190.658,58.261 191.409,57.6 C192.120,55.815 192.483,54.418 192.519,52.827 L183.212,52.827 L183.212,44.538 L203.486,44.538 L203.486,50.761 C203.486,54.970 202.594,58.575 200.811,61.575 C199.28,64.576 196.578,66.879 193.464,68.486 ZM123.851,43.115 L123.552,43.115 L123.552,70.254 L112.186,70.254 L112.186,23.231 L121.968,23.231 L140.474,50.324 L140.864,50.324 L140.864,23.231 L152.207,23.231 L152.207,70.254 L142.564,70.254 L123.851,43.115 ZM90.504,60.381 L74.265,60.381 L71.171,70.254 L58.956,70.254 L74.822,23.231 L89.953,23.231 L105.819,70.254 L93.604,70.254 L90.504,60.381 ZM82.560,35.79 L82.192,35.79 L76.969,51.748 L87.793,51.748 L82.560,35.79 ZM41.521,41.370 L41.131,41.370 L29.834,69.956 L22.762,69.956 L11.466,41.209 L11.75,41.209 L11.75,70.254 L0.8,70.254 L0.8,23.231 L14.83,23.231 L26.23,52.345 L26.574,52.345 L38.514,23.231 L52.588,23.231 L52.588,70.254 L41.521,70.254 L41.521,41.370 Z"/>
<path fill="url(#PSgrad_0)"
 d="M579.490,33.605 C578.294,32.659 576.591,32.186 574.382,32.186 C572.920,32.186 571.700,32.378 570.726,32.763 C569.750,33.148 569.19,33.674 568.532,34.344 C568.44,35.13 567.792,35.779 567.777,36.640 C567.747,37.348 567.888,37.972 568.200,38.510 C568.512,39.49 568.969,39.522 569.571,39.929 C570.173,40.337 570.901,40.695 571.754,41.3 C572.607,41.311 573.567,41.580 574.634,41.811 L578.656,42.734 C580.972,43.242 583.17,43.919 584.792,44.765 C586.567,45.611 588.60,46.619 589.271,47.789 C590.483,48.958 591.400,50.304 592.25,51.828 C592.650,53.351 592.970,55.59 592.985,56.952 C592.970,59.937 592.223,62.499 590.745,64.638 C589.267,66.777 587.146,68.415 584.381,69.554 C581.615,70.692 578.282,71.262 574.382,71.262 C570.466,71.262 567.54,70.669 564.144,69.485 C561.233,68.300 558.971,66.500 557.356,64.84 C555.741,61.668 554.911,58.614 554.865,54.921 L565.698,54.921 C565.789,56.444 566.193,57.713 566.909,58.729 C567.625,59.744 568.612,60.514 569.869,61.37 C571.126,61.560 572.584,61.822 574.245,61.822 C575.768,61.822 577.67,61.614 578.142,61.199 C579.216,60.783 580.42,60.206 580.621,59.468 C581.200,58.729 581.497,57.883 581.512,56.929 C581.497,56.36 581.223,55.271 580.690,54.632 C580.156,53.994 579.337,53.440 578.233,52.970 C577.128,52.501 575.723,52.66 574.16,51.666 L569.126,50.512 C565.73,49.574 561.881,48.54 559.550,45.954 C557.219,43.853 556.61,41.11 556.76,37.425 C556.61,34.502 556.838,31.940 558.407,29.739 C559.976,27.539 562.148,25.823 564.921,24.592 C567.694,23.361 570.855,22.746 574.405,22.746 C578.31,22.746 581.181,23.365 583.855,24.604 C586.529,25.842 588.605,27.577 590.83,29.808 C591.560,32.40 592.314,34.625 592.345,37.564 L581.512,37.564 C581.360,35.871 580.686,34.552 579.490,33.605 ZM542.14,68.942 C539.592,70.89 536.651,70.662 533.193,70.662 L512.190,70.662 L512.190,23.392 L531.707,23.392 C535.211,23.392 538.148,23.892 540.517,24.892 C542.886,25.893 544.669,27.293 545.865,29.93 C547.61,30.893 547.659,32.978 547.659,35.348 C547.659,37.148 547.285,38.752 546.539,40.160 C545.792,41.568 544.764,42.734 543.454,43.657 C542.143,44.580 540.627,45.227 538.906,45.596 L538.906,46.57 C540.795,46.150 542.543,46.665 544.151,47.604 C545.758,48.543 547.49,49.847 548.25,51.516 C548.999,53.186 549.487,55.159 549.487,57.436 C549.487,59.975 548.847,62.241 547.567,64.234 C546.288,66.227 544.437,67.796 542.14,68.942 ZM534.449,33.825 C533.337,32.917 531.836,32.463 529.947,32.463 L523.503,32.463 L523.503,42.826 L529.764,42.826 C530.999,42.826 532.96,42.618 533.55,42.203 C534.15,41.787 534.765,41.187 535.306,40.403 C535.847,39.618 536.118,38.672 536.118,37.564 C536.118,35.979 535.561,34.733 534.449,33.825 ZM536.826,52.970 C536.262,52.86 535.463,51.401 534.427,50.916 C533.390,50.431 532.149,50.189 530.701,50.189 L523.503,50.189 L523.503,61.452 L530.496,61.452 C532.949,61.452 534.758,60.983 535.924,60.45 C537.89,59.106 537.672,57.798 537.672,56.121 C537.672,54.905 537.390,53.855 536.826,52.970 ZM456.105,92.471 C430.717,92.471 410.136,71.889 410.136,46.501 C410.136,21.113 430.717,0.532 456.105,0.532 C481.494,0.532 502.75,21.113 502.75,46.501 C502.75,71.889 481.494,92.471 456.105,92.471 ZM355.188,92.250 C329.861,92.250 309.330,71.718 309.330,46.391 C309.330,21.64 329.861,0.532 355.188,0.532 C380.515,0.532 401.47,21.64 401.47,46.391 C401.47,71.718 380.515,92.250 355.188,92.250 ZM291.165,68.544 C288.731,69.684 285.777,70.254 282.302,70.254 L261.201,70.254 L261.201,23.231 L280.810,23.231 C284.330,23.231 287.281,23.728 289.661,24.723 C292.41,25.718 293.832,27.111 295.34,28.902 C296.235,30.693 296.836,32.767 296.836,35.124 C296.836,36.915 296.461,38.511 295.711,39.912 C294.961,41.312 293.928,42.472 292.611,43.390 C291.295,44.309 289.772,44.952 288.42,45.319 L288.42,45.778 C289.940,45.870 291.697,46.383 293.312,47.317 C294.927,48.250 296.224,49.548 297.204,51.208 C298.183,52.870 298.673,54.833 298.673,57.98 C298.673,59.624 298.30,61.878 296.744,63.860 C295.459,65.842 293.599,67.404 291.165,68.544 ZM283.565,33.609 C282.447,32.706 280.939,32.254 279.42,32.254 L272.567,32.254 L272.567,42.564 L278.858,42.564 C280.98,42.564 281.200,42.357 282.164,41.944 C283.129,41.530 283.882,40.934 284.426,40.153 C284.969,39.372 285.241,38.431 285.241,37.329 C285.241,35.752 284.682,34.512 283.565,33.609 ZM285.953,52.655 C285.386,51.775 284.583,51.94 283.542,50.611 C282.501,50.129 281.253,49.888 279.799,49.888 L272.567,49.888 L272.567,61.93 L279.593,61.93 C282.57,61.93 283.875,60.626 285.46,59.692 C286.217,58.759 286.802,57.458 286.802,55.789 C286.802,54.580 286.519,53.535 285.953,52.655 ZM239.519,60.381 L223.279,60.381 L220.186,70.254 L207.971,70.254 L223.837,23.231 L238.968,23.231 L254.834,70.254 L242.618,70.254 L239.519,60.381 ZM231.574,35.79 L231.207,35.79 L225.984,51.748 L236.808,51.748 L231.574,35.79 ZM193.464,68.486 C190.348,70.94 186.770,70.897 182.729,70.897 C178.244,70.897 174.303,69.925 170.905,67.981 C167.506,66.38 164.858,63.263 162.960,59.658 C161.62,56.53 160.113,51.771 160.113,46.811 C160.113,42.954 160.687,39.529 161.835,36.537 C162.983,33.544 164.586,31.7 166.645,28.925 C168.704,26.843 171.92,25.267 173.809,24.195 C176.526,23.124 179.453,22.588 182.592,22.588 C185.316,22.588 187.853,22.978 190.203,23.759 C192.553,24.539 194.635,25.642 196.448,27.65 C198.262,28.489 199.735,30.180 200.868,32.140 C202.1,34.99 202.705,36.249 202.981,38.592 L191.477,38.592 C191.217,37.627 190.835,36.774 190.329,36.31 C189.824,35.289 189.204,34.658 188.470,34.137 C187.735,33.617 186.893,33.223 185.944,32.955 C184.995,32.687 183.954,32.553 182.821,32.553 C180.540,32.553 178.569,33.104 176.909,34.206 C175.248,35.308 173.966,36.912 173.63,39.16 C172.159,41.121 171.708,43.674 171.708,46.674 C171.708,49.689 172.144,52.261 173.17,54.389 C173.889,56.516 175.152,58.139 176.805,59.256 C178.459,60.374 180.464,60.932 182.821,60.932 C184.903,60.932 186.667,60.592 188.114,59.911 C189.560,59.230 190.658,58.261 191.409,57.6 C192.120,55.815 192.483,54.418 192.519,52.827 L183.212,52.827 L183.212,44.538 L203.486,44.538 L203.486,50.761 C203.486,54.970 202.594,58.575 200.811,61.575 C199.28,64.576 196.578,66.879 193.464,68.486 ZM123.851,43.115 L123.552,43.115 L123.552,70.254 L112.186,70.254 L112.186,23.231 L121.968,23.231 L140.474,50.324 L140.864,50.324 L140.864,23.231 L152.207,23.231 L152.207,70.254 L142.564,70.254 L123.851,43.115 ZM90.504,60.381 L74.265,60.381 L71.171,70.254 L58.956,70.254 L74.822,23.231 L89.953,23.231 L105.819,70.254 L93.604,70.254 L90.504,60.381 ZM82.560,35.79 L82.192,35.79 L76.969,51.748 L87.793,51.748 L82.560,35.79 ZM41.521,41.370 L41.131,41.370 L29.834,69.956 L22.762,69.956 L11.466,41.209 L11.75,41.209 L11.75,70.254 L0.8,70.254 L0.8,23.231 L14.83,23.231 L26.23,52.345 L26.574,52.345 L38.514,23.231 L52.588,23.231 L52.588,70.254 L41.521,70.254 L41.521,41.370 Z"/>
</svg>